<?xml version="1.0" encoding="utf-8"?>
<!-- Generator: Adobe Illustrator 27.1.0, SVG Export Plug-In . SVG Version: 6.00 Build 0)  -->
<svg version="1.1" id="Capa_1" xmlns="http://www.w3.org/2000/svg" xmlns:xlink="http://www.w3.org/1999/xlink" x="0px" y="0px"
	 viewBox="0 0 42 42" style="enable-background:new 0 0 42 42;" xml:space="preserve">
<style type="text/css">
	.st0{fill:#FA4515;}
</style>
<path class="st0" d="M6.9,2.8v-1c-0.3,0-0.6,0.1-0.8,0.3C6,2.3,5.9,2.6,5.9,2.9L6.9,2.8z M39.9,2.8l1,0.1c0-0.3-0.1-0.6-0.2-0.8
	c-0.2-0.2-0.5-0.3-0.8-0.3V2.8z M36.6,28v1c0.5,0,0.9-0.4,1-0.9L36.6,28z M10.1,28l-1,0.1c0.1,0.5,0.5,0.9,1,0.9V28z M9.7,3.8
	c0.6,0,1-0.4,1-1c0-0.6-0.4-1-1-1V3.8z M1,1.8c-0.6,0-1,0.4-1,1c0,0.6,0.4,1,1,1V1.8z M6.9,3.8h33v-2h-33V3.8z M38.9,2.6l-3.2,25.2
	l2,0.3l3.2-25.2L38.9,2.6z M36.6,27H10.1v2h26.5V27z M11.1,27.9L7.9,2.6l-2,0.3l3.2,25.2L11.1,27.9z M14.1,40.8
	c1.7,0,3.2-1.4,3.2-3.2h-2c0,0.6-0.5,1.2-1.2,1.2V40.8z M17.3,37.6c0-1.8-1.4-3.2-3.2-3.2v2c0.7,0,1.2,0.5,1.2,1.2H17.3z M14.1,34.4
	c-1.7,0-3.2,1.4-3.2,3.2h2c0-0.6,0.5-1.2,1.2-1.2V34.4z M10.9,37.6c0,1.8,1.4,3.2,3.2,3.2v-2c-0.7,0-1.2-0.5-1.2-1.2H10.9z
	 M33.7,40.8c1.7,0,3.2-1.4,3.2-3.2h-2c0,0.6-0.5,1.2-1.2,1.2V40.8z M36.9,37.6c0-1.8-1.4-3.2-3.2-3.2v2c0.7,0,1.2,0.5,1.2,1.2H36.9z
	 M33.7,34.4c-1.7,0-3.2,1.4-3.2,3.2h2c0-0.6,0.5-1.2,1.2-1.2V34.4z M30.5,37.6c0,1.8,1.4,3.2,3.2,3.2v-2c-0.7,0-1.2-0.5-1.2-1.2
	H30.5z M9.7,1.8H1v2h8.7V1.8z"/>
</svg>
