<?xml version="1.0" encoding="utf-8"?>
<!-- Generator: Adobe Illustrator 27.1.0, SVG Export Plug-In . SVG Version: 6.00 Build 0)  -->
<svg version="1.1" id="Capa_1" xmlns="http://www.w3.org/2000/svg" xmlns:xlink="http://www.w3.org/1999/xlink" x="0px" y="0px"
	 viewBox="0 0 42 43" style="enable-background:new 0 0 42 43;" xml:space="preserve">
<style type="text/css">
	.st0{fill:none;stroke:#FA4515;stroke-width:2;stroke-linecap:round;}
</style>
<path class="st0" d="M13,22.8l5,5l11-11"/>
<path class="st0" d="M21,41.8c2.8,0,5.2-1.9,5.8-4.6c0.1-0.4,0.6-0.6,1-0.4c2.3,1.4,5.4,1.1,7.4-0.9c2-2,2.3-5,0.9-7.4
	c-0.2-0.4,0-0.9,0.4-1c2.6-0.6,4.6-3,4.6-5.8s-1.9-5.2-4.6-5.8c-0.4-0.1-0.6-0.6-0.4-1c1.4-2.3,1.1-5.4-0.9-7.4c-2-2-5-2.3-7.4-0.9
	c-0.4,0.2-0.9,0-1-0.4c-0.6-2.6-3-4.6-5.8-4.6c-2.8,0-5.2,1.9-5.8,4.6c-0.1,0.4-0.6,0.6-1,0.4c-2.3-1.4-5.4-1.1-7.4,0.9
	c-2,2-2.3,5-0.9,7.4c0.2,0.4,0,0.9-0.4,1c-2.6,0.6-4.6,3-4.6,5.8c0,2.8,1.9,5.2,4.6,5.8c0.4,0.1,0.6,0.6,0.4,1
	c-1.4,2.3-1.1,5.4,0.9,7.4c2,2,5,2.3,7.4,0.9c0.4-0.2,0.9,0,1,0.4C15.8,39.8,18.2,41.8,21,41.8z"/>
</svg>
