<?xml version="1.0" encoding="utf-8"?>
<!-- Generator: Adobe Illustrator 27.1.0, SVG Export Plug-In . SVG Version: 6.00 Build 0)  -->
<svg version="1.1" id="Capa_1" xmlns="http://www.w3.org/2000/svg" xmlns:xlink="http://www.w3.org/1999/xlink" x="0px" y="0px"
	 viewBox="0 0 625 143" style="enable-background:new 0 0 625 143;" xml:space="preserve">
<style type="text/css">
	.st0{fill:#FA4515;}
</style>
<g>
	<g>
		<path class="st0" d="M123.41,42.26c-0.19,1.85-2.81,2.53-4.85,2.3c-11.58,0-21.97,6.19-23.19,13.83h-0.09
			c-6.35,30.13,7.15,31.09-29.5,30.08l7.71-62.49h25.63l-0.45,5.82c8.02-2.74,17.52-3.85,26.52-3.45l-1.81,13.88L123.41,42.26z"/>
		<path class="st0" d="M150.33,63.41l24.39-19.6c6.5-5.23,8.91-13.72,6.12-21.6c-2.79-7.88-9.94-12.97-18.36-12.97H36.98
			c-10.9,0-20.63,6.12-25.28,15.99c-4.64,9.87-3.24,21.22,3.7,29.71l44.74,54.38c4.13,5.02,10.18,7.67,16.2,7.67
			c3.99,0,7.95-1.1,11.49-3.4 M82.75,109.61c-6.12,2.79-13.62,1.24-18.05-4.13L19.96,51.1c-5.46-6.64-6.57-15.62-2.88-23.35
			c3.68-7.74,11.28-12.59,19.91-12.59h125.49c7.08,0,11.21,4.64,12.76,8.98c1.55,4.34,1.24,10.62-4.27,15.03l-30.13,24.24"/>
	</g>
	<g>
		<path class="st0" d="M416.77,96.6l1.84-19.53l19.86,22.46h22.92l-25.83-29.22l27.01-23.5h-22.92l-19.81,17.24l3.18-33.79h-16.64
			l-6.53,69.27C402.72,98.69,416.72,101.94,416.77,96.6z"/>
		<path class="st0" d="M597.52,46.81c-8.1-0.08-15.19,3.63-17.98,9.62c-4.76-12.09-28.46-12.86-34.2-0.93l1.54-8.69h-18.46
			l-9.31,52.72c26.89,0.96,16.43,0.21,23.63-29.31c1.11-10.92,20.96-13.02,19.1,0c0,0-5.18,29.3-5.18,29.3
			c2.93-0.91,17.79,2.41,18.16-2.75c0,0,4.69-26.56,4.69-26.56c1.1-10.94,20.91-13.01,19.06,0c0,0-5.18,29.3-5.18,29.3
			c2.81-0.87,16.9,2.31,17.24-2.68C612.01,80.38,627.88,46.96,597.52,46.81z"/>
		<path class="st0" d="M398.21,39.1l1.03-10.85c-15.36,0.07-20.85-3.04-20.87,15.61C382.87,42.95,397.9,46.9,398.21,39.1z"/>
		<path class="st0" d="M392.79,96.6l4.69-49.78h-19.41l-4.95,52.72C376.01,98.58,392.82,102.13,392.79,96.6z"/>
		<path class="st0" d="M284.12,50.94c-57.01-24.66-67.5,69.98-4.14,43.92l-0.44,4.68h17.04l5.11-52.72h-17.19L284.12,50.94z
			 M279.02,73.17c-0.89,14.86-28.6,16.8-27.04,0C252.86,58.32,280.57,56.37,279.02,73.17z"/>
		<path class="st0" d="M458.05,73.17c-3.37,36.51,56.52,32.31,58.44,0C519.86,36.67,459.97,40.86,458.05,73.17z M473.83,73.17
			c0.89-14.86,28.43-16.79,26.88,0C499.82,88.04,472.28,89.97,473.83,73.17z"/>
		<path class="st0" d="M343.4,46.81c-5.98-0.18-11.92,1.28-16.96,4.06l0.38-4.06h-17.04l-6.47,68.64
			c22.18,1.05,16.35-0.33,18.88-19.48C360.6,116.54,393.88,51.73,343.4,46.81z M353.2,73.17c-0.89,14.86-28.43,16.79-26.88,0
			C327.2,58.31,354.75,56.38,353.2,73.17z"/>
		<path class="st0" d="M420.17,133.57l112.11-17.72c4.12-0.57,3.71-7.06-0.55-6.97c0,0-136.36,0-136.36,0
			c-1.54,0-2.75,0.75-3.48,1.82c-4.74,5.15,14.31,16.09,16.17,19.34C411.36,132.95,415.8,134.26,420.17,133.57z"/>
		<path class="st0" d="M232.04,46.81c-4.96,0-9.76,1.11-14.08,3.07l0.29-3.07h-16.46l-4.96,52.72c1.53-0.26,14.56,0.66,15.51-0.69
			c1.99,0.12,2.93-24.42,3.43-25.67h0.06c0.76-8.33,9.49-11.96,17.26-12.69c1.21-0.39,1.59-12.6,1.9-13.63
			C234.1,46.8,232.95,46.81,232.04,46.81z"/>
	</g>
</g>
</svg>
